<svg height="1422" width="720" xmlns="http://www.w3.org/2000/svg">
<rect height="1422" fill="#555" width="720"></rect>
<text fill="#7f7" font-family="Courier New" font-size="12" xml:space="preserve">
<tspan x="10" y="26">7 megabytes installed</tspan>
<tspan x="10" y="42"></tspan>
<tspan x="10" y="58">node_modules</tspan>
<tspan x="10" y="74">└─┬ usemin-cli@0.5.1 </tspan>
<tspan x="10" y="90">  ├─┬ usemin@0.4.3 </tspan>
<tspan x="10" y="106">  │ ├─┬ clean-css@3.4.25 </tspan>
<tspan x="10" y="122">  │ │ ├─┬ commander@2.8.1 </tspan>
<tspan x="10" y="138">  │ │ │ └── graceful-readlink@1.0.1 </tspan>
<tspan x="10" y="154">  │ │ └─┬ source-map@0.4.4 </tspan>
<tspan x="10" y="170">  │ │   └── amdefine@1.0.1 </tspan>
<tspan x="10" y="186">  │ ├─┬ html-minifier@3.4.3 </tspan>
<tspan x="10" y="202">  │ │ ├─┬ camel-case@3.0.0 </tspan>
<tspan x="10" y="218">  │ │ │ ├─┬ no-case@2.3.1 </tspan>
<tspan x="10" y="234">  │ │ │ │ └── lower-case@1.1.4 </tspan>
<tspan x="10" y="250">  │ │ │ └── upper-case@1.1.3 </tspan>
<tspan x="10" y="266">  │ │ ├─┬ clean-css@4.0.12 </tspan>
<tspan x="10" y="282">  │ │ │ └── source-map@0.5.6 </tspan>
<tspan x="10" y="298">  │ │ ├── commander@2.9.0 </tspan>
<tspan x="10" y="314">  │ │ ├── he@1.1.1 </tspan>
<tspan x="10" y="330">  │ │ ├─┬ ncname@1.0.0 </tspan>
<tspan x="10" y="346">  │ │ │ └── xml-char-classes@1.0.0 </tspan>
<tspan x="10" y="362">  │ │ ├── param-case@2.1.1 </tspan>
<tspan x="10" y="378">  │ │ └── relateurl@0.2.7 </tspan>
<tspan x="10" y="394">  │ ├─┬ mkdirp@0.5.1 </tspan>
<tspan x="10" y="410">  │ │ └── minimist@0.0.8 </tspan>
<tspan x="10" y="426">  │ └─┬ uglify-js@2.8.22 </tspan>
<tspan x="10" y="442">  │   ├── source-map@0.5.6 </tspan>
<tspan x="10" y="458">  │   ├── uglify-to-browserify@1.0.2 </tspan>
<tspan x="10" y="474">  │   └─┬ yargs@3.10.0 </tspan>
<tspan x="10" y="490">  │     ├── camelcase@1.2.1 </tspan>
<tspan x="10" y="506">  │     ├─┬ cliui@2.1.0 </tspan>
<tspan x="10" y="522">  │     │ ├─┬ center-align@0.1.3 </tspan>
<tspan x="10" y="538">  │     │ │ ├─┬ align-text@0.1.4 </tspan>
<tspan x="10" y="554">  │     │ │ │ ├─┬ kind-of@3.1.0 </tspan>
<tspan x="10" y="570">  │     │ │ │ │ └── is-buffer@1.1.5 </tspan>
<tspan x="10" y="586">  │     │ │ │ ├── longest@1.0.1 </tspan>
<tspan x="10" y="602">  │     │ │ │ └── repeat-string@1.6.1 </tspan>
<tspan x="10" y="618">  │     │ │ └── lazy-cache@1.0.4 </tspan>
<tspan x="10" y="634">  │     │ ├── right-align@0.1.3 </tspan>
<tspan x="10" y="650">  │     │ └── wordwrap@0.0.2 </tspan>
<tspan x="10" y="666">  │     └── window-size@0.1.0 </tspan>
<tspan x="10" y="682">  └─┬ yargs@6.6.0 </tspan>
<tspan x="10" y="698">    ├── camelcase@3.0.0 </tspan>
<tspan x="10" y="714">    ├─┬ cliui@3.2.0 </tspan>
<tspan x="10" y="730">    │ └── wrap-ansi@2.1.0 </tspan>
<tspan x="10" y="746">    ├── decamelize@1.2.0 </tspan>
<tspan x="10" y="762">    ├── get-caller-file@1.0.2 </tspan>
<tspan x="10" y="778">    ├─┬ os-locale@1.4.0 </tspan>
<tspan x="10" y="794">    │ └─┬ lcid@1.0.0 </tspan>
<tspan x="10" y="810">    │   └── invert-kv@1.0.0 </tspan>
<tspan x="10" y="826">    ├─┬ read-pkg-up@1.0.1 </tspan>
<tspan x="10" y="842">    │ ├─┬ find-up@1.1.2 </tspan>
<tspan x="10" y="858">    │ │ ├── path-exists@2.1.0 </tspan>
<tspan x="10" y="874">    │ │ └─┬ pinkie-promise@2.0.1 </tspan>
<tspan x="10" y="890">    │ │   └── pinkie@2.0.4 </tspan>
<tspan x="10" y="906">    │ └─┬ read-pkg@1.1.0 </tspan>
<tspan x="10" y="922">    │   ├─┬ load-json-file@1.1.0 </tspan>
<tspan x="10" y="938">    │   │ ├── graceful-fs@4.1.11 </tspan>
<tspan x="10" y="954">    │   │ ├─┬ parse-json@2.2.0 </tspan>
<tspan x="10" y="970">    │   │ │ └─┬ error-ex@1.3.1 </tspan>
<tspan x="10" y="986">    │   │ │   └── is-arrayish@0.2.1 </tspan>
<tspan x="10" y="1002">    │   │ ├── pify@2.3.0 </tspan>
<tspan x="10" y="1018">    │   │ └─┬ strip-bom@2.0.0 </tspan>
<tspan x="10" y="1034">    │   │   └── is-utf8@0.2.1 </tspan>
<tspan x="10" y="1050">    │   ├─┬ normalize-package-data@2.3.8 </tspan>
<tspan x="10" y="1066">    │   │ ├── hosted-git-info@2.4.2 </tspan>
<tspan x="10" y="1082">    │   │ ├─┬ is-builtin-module@1.0.0 </tspan>
<tspan x="10" y="1098">    │   │ │ └── builtin-modules@1.1.1 </tspan>
<tspan x="10" y="1114">    │   │ ├── semver@5.3.0 </tspan>
<tspan x="10" y="1130">    │   │ └─┬ validate-npm-package-license@3.0.1 </tspan>
<tspan x="10" y="1146">    │   │   ├─┬ spdx-correct@1.0.2 </tspan>
<tspan x="10" y="1162">    │   │   │ └── spdx-license-ids@1.2.2 </tspan>
<tspan x="10" y="1178">    │   │   └── spdx-expression-parse@1.0.4 </tspan>
<tspan x="10" y="1194">    │   └── path-type@1.1.0 </tspan>
<tspan x="10" y="1210">    ├── require-directory@2.1.1 </tspan>
<tspan x="10" y="1226">    ├── require-main-filename@1.0.1 </tspan>
<tspan x="10" y="1242">    ├── set-blocking@2.0.0 </tspan>
<tspan x="10" y="1258">    ├─┬ string-width@1.0.2 </tspan>
<tspan x="10" y="1274">    │ ├── code-point-at@1.1.0 </tspan>
<tspan x="10" y="1290">    │ ├─┬ is-fullwidth-code-point@1.0.0 </tspan>
<tspan x="10" y="1306">    │ │ └── number-is-nan@1.0.1 </tspan>
<tspan x="10" y="1322">    │ └─┬ strip-ansi@3.0.1 </tspan>
<tspan x="10" y="1338">    │   └── ansi-regex@2.1.1 </tspan>
<tspan x="10" y="1354">    ├── which-module@1.0.0 </tspan>
<tspan x="10" y="1370">    ├── y18n@3.2.1 </tspan>
<tspan x="10" y="1386">    └─┬ yargs-parser@4.2.1 </tspan>
<tspan x="10" y="1402">      └── camelcase@3.0.0</tspan>
</text>
</svg>
